<svg width="26" height="26" viewBox="0 0 26 26" fill="none" xmlns="http://www.w3.org/2000/svg">
<circle cx="12.5" cy="12.5" r="12.5" transform="matrix(-1 0 0 1 25.2505 0)" fill="#EEEEEE"/>
<path d="M8.81299 10.1875C8.62549 10 8.42757 9.94271 8.21924 10.0156C8.00049 10.0885 7.85465 10.2396 7.78174 10.4687C7.70882 10.6875 7.7609 10.8854 7.93799 11.0625L12.313 15.4531C12.4484 15.5885 12.5942 15.6562 12.7505 15.6562C12.8963 15.6562 13.0422 15.5885 13.188 15.4531L17.563 11.0625C17.7401 10.8854 17.7922 10.6875 17.7192 10.4687C17.6463 10.25 17.5057 10.1042 17.2974 10.0312C17.0786 9.94792 16.8755 10 16.688 10.1875L12.7505 14.1094L8.81299 10.1875Z" fill="#861290"/>
</svg>
