<svg width="16" height="17" viewBox="0 0 16 17" fill="none" xmlns="http://www.w3.org/2000/svg">
<path fill-rule="evenodd" clip-rule="evenodd" d="M8.00002 0.148926C5.82733 0.148926 5.5549 0.158135 4.70161 0.197068C3.8501 0.235906 3.26855 0.371155 2.7597 0.568931C2.23363 0.773345 1.78748 1.04689 1.34271 1.49164C0.897966 1.93641 0.624419 2.38255 0.420006 2.90862C0.222229 3.41748 0.0869798 3.99903 0.0481422 4.85054C0.00920926 5.70382 0 5.97626 0 8.14894C0 10.3216 0.00920926 10.594 0.0481422 11.4473C0.0869798 12.2988 0.222229 12.8804 0.420006 13.3892C0.624419 13.9153 0.897966 14.3614 1.34271 14.8062C1.78748 15.251 2.23363 15.5245 2.7597 15.729C3.26855 15.9267 3.8501 16.0619 4.70161 16.1008C5.5549 16.1397 5.82733 16.1489 8.00002 16.1489C10.1727 16.1489 10.4451 16.1397 11.2984 16.1008C12.1499 16.0619 12.7314 15.9267 13.2403 15.729C13.7664 15.5245 14.2125 15.251 14.6573 14.8062C15.102 14.3614 15.3756 13.9153 15.58 13.3892C15.7778 12.8804 15.913 12.2988 15.9519 11.4473C15.9908 10.594 16 10.3216 16 8.14894C16 5.97626 15.9908 5.70382 15.9519 4.85054C15.913 3.99903 15.7778 3.41748 15.58 2.90862C15.3756 2.38255 15.102 1.93641 14.6573 1.49164C14.2125 1.04689 13.7664 0.773345 13.2403 0.568931C12.7314 0.371155 12.1499 0.235906 11.2984 0.197068C10.4451 0.158135 10.1727 0.148926 8.00002 0.148926ZM8.00002 1.59036C10.1361 1.59036 10.3891 1.59853 11.2327 1.63701C12.0127 1.67258 12.4363 1.80291 12.7182 1.91247C13.0916 2.05759 13.3581 2.23095 13.638 2.51091C13.918 2.79084 14.0913 3.05734 14.2365 3.43075C14.346 3.71265 14.4763 4.13625 14.5119 4.91624C14.5504 5.75981 14.5586 6.01284 14.5586 8.14894C14.5586 10.285 14.5504 10.538 14.5119 11.3816C14.4763 12.1616 14.346 12.5852 14.2365 12.8671C14.0913 13.2405 13.918 13.507 13.638 13.7869C13.3581 14.0669 13.0916 14.2403 12.7182 14.3854C12.4363 14.4949 12.0127 14.6253 11.2327 14.6608C10.3892 14.6993 10.1362 14.7075 8.00002 14.7075C5.86375 14.7075 5.61079 14.6993 4.76731 14.6608C3.98732 14.6253 3.56373 14.4949 3.28183 14.3854C2.90841 14.2403 2.64191 14.0669 2.36198 13.7869C2.08205 13.507 1.90867 13.2405 1.76354 12.8671C1.65398 12.5852 1.52366 12.1616 1.48809 11.3816C1.4496 10.538 1.44144 10.285 1.44144 8.14894C1.44144 6.01284 1.4496 5.75981 1.48809 4.91624C1.52366 4.13625 1.65398 3.71265 1.76354 3.43075C1.90867 3.05734 2.08202 2.79084 2.36198 2.51091C2.64191 2.23095 2.90841 2.05759 3.28183 1.91247C3.56373 1.80291 3.98732 1.67258 4.76731 1.63701C5.61088 1.59853 5.86391 1.59036 8.00002 1.59036Z" fill="#861290"/>
<path fill-rule="evenodd" clip-rule="evenodd" d="M8.00002 10.8156C6.52723 10.8156 5.33333 9.62169 5.33333 8.14894C5.33333 6.67616 6.52723 5.48226 8.00002 5.48226C9.47277 5.48226 10.6667 6.67616 10.6667 8.14894C10.6667 9.62169 9.47277 10.8156 8.00002 10.8156ZM8.00002 4.04082C5.73114 4.04082 3.89189 5.88007 3.89189 8.14894C3.89189 10.4178 5.73114 12.257 8.00002 12.257C10.2689 12.257 12.1081 10.4178 12.1081 8.14894C12.1081 5.88007 10.2689 4.04082 8.00002 4.04082Z" fill="#861290"/>
<path fill-rule="evenodd" clip-rule="evenodd" d="M13.2304 3.87852C13.2304 4.40871 12.8006 4.8385 12.2704 4.8385C11.7402 4.8385 11.3104 4.40871 11.3104 3.87852C11.3104 3.34832 11.7402 2.9185 12.2704 2.9185C12.8006 2.9185 13.2304 3.34832 13.2304 3.87852Z" fill="#861290"/>
</svg>
