<svg width="20" height="19" viewBox="0 0 20 19" fill="none" xmlns="http://www.w3.org/2000/svg">
<path d="M9.24944 17.238C7.71611 17.238 6.29111 16.863 4.97444 16.113C3.67444 15.3463 2.64111 14.313 1.87444 13.013C1.12444 11.6963 0.749443 10.2713 0.749443 8.738C0.749443 7.20467 1.12444 5.788 1.87444 4.488C2.64111 3.17133 3.67444 2.138 4.97444 1.388C6.29111 0.621332 7.71611 0.237999 9.24944 0.237999C10.7828 0.237999 12.1994 0.621332 13.4994 1.388C14.8161 2.138 15.8494 3.17133 16.5994 4.488C17.3661 5.788 17.7494 7.20467 17.7494 8.738C17.7494 10.2713 17.3661 11.6963 16.5994 13.013C15.8494 14.313 14.8161 15.3463 13.4994 16.113C12.1994 16.863 10.7828 17.238 9.24944 17.238ZM9.24944 15.238C10.4828 15.238 11.5911 14.963 12.5744 14.413C13.5744 13.8463 14.3494 13.0713 14.8994 12.088C15.4661 11.088 15.7494 9.97133 15.7494 8.738C15.7494 7.50467 15.4661 6.39633 14.8994 5.413C14.3494 4.413 13.5744 3.638 12.5744 3.088C11.5911 2.52133 10.4828 2.238 9.24944 2.238C8.01611 2.238 6.89944 2.52133 5.89944 3.088C4.91611 3.638 4.14111 4.413 3.57444 5.413C3.02444 6.39633 2.74944 7.50467 2.74944 8.738C2.74944 9.97133 3.02444 11.088 3.57444 12.088C4.14111 13.0713 4.91611 13.8463 5.89944 14.413C6.89944 14.963 8.01611 15.238 9.24944 15.238ZM13.3244 14.238L14.7494 12.813L18.9494 17.038C19.2328 17.3213 19.3161 17.638 19.1994 17.988C19.0828 18.338 18.8494 18.5797 18.4994 18.713C18.1661 18.8297 17.8494 18.738 17.5494 18.438L13.3244 14.238Z" fill="#FFC887"/>
</svg>
