<svg width="17" height="14" viewBox="0 0 17 14" fill="none" xmlns="http://www.w3.org/2000/svg">
<path d="M6.79302 11.3732C6.80126 10.5302 6.80401 10.0508 6.96339 9.5439C7.19697 8.8028 7.59818 8.29312 8.43082 7.64294C10.2445 6.21584 11.8878 4.56834 13.6025 3.01451C13.7702 2.86298 13.9185 2.69217 14.0752 2.52963C14.1961 2.36432 14.2016 2.30922 14.1851 2.28718C14.1631 2.26239 14.0944 2.2679 13.5778 2.53238C13.4569 2.59299 13.292 2.67564 13.2096 2.72799C10.5468 4.40579 7.88397 6.08635 5.22942 7.78344C5.05629 7.89364 4.89691 7.96252 4.72653 7.97905C4.52868 7.99833 4.3693 7.94874 4.2896 7.92119C3.92687 7.79722 2.26159 7.11673 0 6.15523C0.255563 6.0588 0.634785 5.91554 1.0937 5.74197C4.47647 4.45538 6.15274 3.77489 7.27392 3.34236C10.0604 2.27065 12.8441 1.18518 15.6415 0.138272C15.9795 0.0115409 16.5951 -0.0738646 16.7187 0.0914364C16.9523 0.405508 17.0512 0.942736 16.9743 1.34221C16.5291 3.65367 16.0153 5.95411 15.5234 8.2573C15.1881 9.86072 14.8501 11.4641 14.5066 13.0621C14.2923 14.0566 13.7454 14.266 12.9183 13.6626C11.7119 12.7838 10.5193 11.8884 9.30743 10.9903C8.50227 11.7589 7.69436 12.5276 6.8892 13.2962C6.83699 12.8389 6.78752 12.1749 6.79302 11.3732Z" fill="#EEEEEE"/>
</svg>
