<svg width="17" height="15" viewBox="0 0 17 15" fill="none" xmlns="http://www.w3.org/2000/svg">
<path d="M6.79302 11.5222C6.80126 10.6791 6.80401 10.1997 6.96339 9.69282C7.19697 8.95172 7.59818 8.44205 8.43082 7.79186C10.2445 6.36476 11.8878 4.71726 13.6025 3.16343C13.7702 3.01191 13.9185 2.8411 14.0752 2.67855C14.1961 2.51325 14.2016 2.45815 14.1851 2.43611C14.1631 2.41131 14.0944 2.41682 13.5778 2.68131C13.4569 2.74192 13.292 2.82457 13.2096 2.87691C10.5468 4.55472 7.88397 6.23528 5.22942 7.93237C5.05629 8.04257 4.89691 8.11144 4.72653 8.12797C4.52868 8.14726 4.3693 8.09767 4.2896 8.07012C3.92687 7.94614 2.26159 7.26565 0 6.30415C0.255563 6.20773 0.634785 6.06447 1.0937 5.8909C4.47647 4.60431 6.15274 3.92382 7.27392 3.49128C10.0604 2.41958 12.8441 1.3341 15.6415 0.287197C15.9795 0.160467 16.5951 0.0750612 16.7187 0.240362C16.9523 0.554434 17.0512 1.09166 16.9743 1.49114C16.5291 3.8026 16.0153 6.10304 15.5234 8.40623C15.1881 10.0097 14.8501 11.6131 14.5066 13.211C14.2923 14.2055 13.7454 14.4149 12.9183 13.8116C11.7119 12.9327 10.5193 12.0373 9.30743 11.1392C8.50227 11.9079 7.69436 12.6765 6.8892 13.4452C6.83699 12.9878 6.78752 12.3239 6.79302 11.5222Z" fill="#861290"/>
</svg>
