<svg width="16" height="16" viewBox="0 0 16 16" fill="none" xmlns="http://www.w3.org/2000/svg">
<path fill-rule="evenodd" clip-rule="evenodd" d="M8.00069 0C3.58847 0 0.00137874 3.5868 0.00137874 7.99867C0.00137874 9.55065 0.441805 11.0416 1.28021 12.3336L0.0624016 15.0104C-0.0490315 15.2572 -0.00923395 15.5463 0.165875 15.7533C0.301187 15.9125 0.494868 15.9973 0.696509 15.9973C0.757532 15.9973 0.821209 15.9894 0.882231 15.9735L4.23319 15.0555C5.38997 15.6737 6.68472 16 8.00069 16C12.4129 16 16 12.4105 16 8.00133C16 3.5868 12.4129 0 8.00069 0ZM8.00069 14.6019C6.83329 14.6019 5.68182 14.2915 4.67627 13.7025C4.56749 13.6389 4.44544 13.607 4.32339 13.607C4.26237 13.607 4.19869 13.615 4.13767 13.6309L1.95146 14.2331L2.71292 12.5538C2.81639 12.3256 2.78986 12.0604 2.64394 11.8561C1.82941 10.7259 1.39695 9.39148 1.39695 7.99867C1.39695 4.35881 4.36054 1.39546 8.00069 1.39546C11.6408 1.39546 14.6044 4.35616 14.6044 7.99867C14.6044 11.6385 11.6408 14.6019 8.00069 14.6019Z" fill="#EEEEEE"/>
<path fill-rule="evenodd" clip-rule="evenodd" d="M11.0757 9.19781C10.7414 8.99619 10.3036 8.77334 9.91097 8.93517C9.60851 9.05986 9.41483 9.53208 9.21849 9.77616C9.11767 9.90084 8.99828 9.91941 8.84174 9.8584C7.70619 9.40474 6.83329 8.646 6.20714 7.60073C6.10102 7.4389 6.11959 7.3089 6.24694 7.16034C6.43532 6.93749 6.6741 6.68281 6.72451 6.38302C6.77492 6.08324 6.63431 5.73039 6.50961 5.46244C6.35042 5.12021 6.17265 4.63207 5.83039 4.4384C5.51467 4.26065 5.10077 4.35881 4.81954 4.58962C4.33401 4.98491 4.10053 5.60305 4.10849 6.21588C4.11114 6.39098 4.13237 6.56342 4.17216 6.73056C4.27033 7.13381 4.45605 7.51318 4.66565 7.87133C4.82484 8.14193 4.9973 8.40458 5.18302 8.65661C5.7906 9.48168 6.54675 10.2006 7.4223 10.7365C7.86007 11.0045 8.33234 11.2406 8.82052 11.3998C9.36707 11.5802 9.85526 11.7685 10.4469 11.6571C11.0651 11.5404 11.6753 11.1557 11.9221 10.5614C11.9937 10.3837 12.0309 10.1874 11.9911 10.0017C11.9115 9.61167 11.3888 9.38352 11.0757 9.19781Z" fill="#EEEEEE"/>
</svg>
