<svg width="16" height="17" viewBox="0 0 16 17" fill="none" xmlns="http://www.w3.org/2000/svg">
<path fill-rule="evenodd" clip-rule="evenodd" d="M8.00069 0.148926C3.58847 0.148926 0.00137874 3.73573 0.00137874 8.1476C0.00137874 9.69958 0.441805 11.1905 1.28021 12.4825L0.0624016 15.1594C-0.0490315 15.4061 -0.00923395 15.6953 0.165875 15.9022C0.301187 16.0614 0.494868 16.1463 0.696509 16.1463C0.757532 16.1463 0.821209 16.1383 0.882231 16.1224L4.23319 15.2045C5.38997 15.8226 6.68472 16.1489 8.00069 16.1489C12.4129 16.1489 16 12.5595 16 8.15025C16 3.73573 12.4129 0.148926 8.00069 0.148926ZM8.00069 14.7508C6.83329 14.7508 5.68182 14.4404 4.67627 13.8515C4.56749 13.7878 4.44544 13.756 4.32339 13.756C4.26237 13.756 4.19869 13.7639 4.13767 13.7798L1.95146 14.3821L2.71292 12.7027C2.81639 12.4746 2.78986 12.2093 2.64394 12.005C1.82941 10.8748 1.39695 9.5404 1.39695 8.1476C1.39695 4.50774 4.36054 1.54438 8.00069 1.54438C11.6408 1.54438 14.6044 4.50509 14.6044 8.1476C14.6044 11.7875 11.6408 14.7508 8.00069 14.7508Z" fill="#861290"/>
<path fill-rule="evenodd" clip-rule="evenodd" d="M11.0757 9.34674C10.7414 9.14511 10.3036 8.92226 9.91097 9.08409C9.60851 9.20878 9.41483 9.68101 9.21849 9.92508C9.11767 10.0498 8.99828 10.0683 8.84174 10.0073C7.70619 9.55367 6.83329 8.79492 6.20714 7.74965C6.10102 7.58782 6.11959 7.45783 6.24694 7.30926C6.43532 7.08641 6.6741 6.83173 6.72451 6.53195C6.77492 6.23216 6.63431 5.87932 6.50961 5.61137C6.35042 5.26914 6.17265 4.78099 5.83039 4.58733C5.51467 4.40958 5.10077 4.50774 4.81954 4.73855C4.33401 5.13384 4.10053 5.75198 4.10849 6.36481C4.11114 6.53991 4.13237 6.71235 4.17216 6.87948C4.27033 7.28273 4.45605 7.66211 4.66565 8.02026C4.82484 8.29086 4.9973 8.5535 5.18302 8.80553C5.7906 9.6306 6.54675 10.3496 7.4223 10.8855C7.86007 11.1534 8.33234 11.3895 8.82052 11.5487C9.36707 11.7291 9.85526 11.9175 10.4469 11.806C11.0651 11.6893 11.6753 11.3046 11.9221 10.7104C11.9937 10.5326 12.0309 10.3363 11.9911 10.1506C11.9115 9.7606 11.3888 9.53244 11.0757 9.34674Z" fill="#861290"/>
</svg>
